<svg id="Camada_1" data-name="Camada 1" xmlns="http://www.w3.org/2000/svg" viewBox="0 0 122.54 145.73"><defs><style>.cls-1{fill:#b71313;}.cls-2{fill:#fff;}</style></defs><path class="cls-1" d="M10.83,10.47H131.92V56.22c0,20.9-7.87,65.41-60,98.53,0,0-56.72-23.6-61.06-98.53Z" transform="translate(-10 -9.63)"/><path d="M50.65,82.64a1.19,1.19,0,0,0-.79.32,3.22,3.22,0,0,0-.67.88,2.73,2.73,0,0,1-2.32.79,8.35,8.35,0,0,1-1.64-.23h0l0,0a3.3,3.3,0,0,0-2.06,1.42,1.34,1.34,0,0,0-.15.6.53.53,0,0,0,0,.2v4.75a.76.76,0,0,1-.34.53,1.56,1.56,0,0,1-.62.2,3.18,3.18,0,0,1-.91,0h0a4.25,4.25,0,0,0-3.36.52,2.92,2.92,0,0,0-.95,1,2.68,2.68,0,0,0-.23,2.22h0a2.07,2.07,0,0,0,.15.34v0c.62,1.66,2.9,1.65,2.9,1.65a3.08,3.08,0,0,0,2.28.21.93.93,0,0,1,.82.4,1.8,1.8,0,0,1,0,.61v.07a6.76,6.76,0,0,1,0,.73c0,.4,0,.92,0,1.52,0,1.2,0,2.72,0,4.23,0,3-.08,5.89-.08,5.89a5.49,5.49,0,0,1-.2,1.61v0a.12.12,0,0,1-.07.12.6.6,0,0,1-.29.13,4.29,4.29,0,0,1-1,.1,13.65,13.65,0,0,1-1.53-.1h0a3.41,3.41,0,0,0-2.83,2.17h0a1.66,1.66,0,0,0,0,1.18,2.45,2.45,0,0,0,.24.52,4.64,4.64,0,0,0,1.41,1.68c0,.41,3.93.62,3.93.62a.83.83,0,0,1,.52.43.42.42,0,0,1,0,.1,3.05,3.05,0,0,1,.1.71,2,2,0,0,0-.05.41c0,.2,0,.45,0,.73,0,.56,0,1.24.08,1.9.08,1.32.18,2.56.18,2.56h0a.8.8,0,0,0,.16.35v0c.2,1.24,4.14.83,4.14.83s13.78-.32,17.51-.26a6.45,6.45,0,0,1,.91,0,12.21,12.21,0,0,0,1.45-.2l1.45,1a2.43,2.43,0,0,0,1.73.55l.33,0a4.27,4.27,0,0,0,1.87-.92l2.07-.42,17.18-.2c1.45.41,2.07-.21,2.07-.21l2.69-.21.29,0a1.57,1.57,0,0,0,1.17-1.16,2.2,2.2,0,0,0,.15-.31,3.74,3.74,0,0,0,.21-1.2v-3.5a3.37,3.37,0,0,1,.17-.68,1.57,1.57,0,0,1,.91-.79l2.48-.41,1.25-.62a1.22,1.22,0,0,0,.87-.86.59.59,0,0,0,.1-.17,2.72,2.72,0,0,0,.23-1.19,6.15,6.15,0,0,0-.22-1.55v0a3.15,3.15,0,0,0-2.4-1.43,8,8,0,0,0-1.7-.11h0c-1,.1-1.37-.18-1.54-.46a.94.94,0,0,1-.14-.58v0l.21-12.82a4.73,4.73,0,0,1,.36-1.18,4.07,4.07,0,0,1,.3-.5,8,8,0,0,0,2.69-.41,2.1,2.1,0,0,0,1.9-1.45l.07-.11a2.84,2.84,0,0,0,.27-1.12,2.23,2.23,0,0,0-1-1.93,5.6,5.6,0,0,0-1.15-.72l0,0H99.24a.3.3,0,0,1-.21-.15,1.29,1.29,0,0,1-.19-.39,5.56,5.56,0,0,1-.16-1.23,14.7,14.7,0,0,1,.08-1.76h0V86.22a2.13,2.13,0,0,0-1.11-1.72A4.67,4.67,0,0,0,96.57,84H92.86a1.11,1.11,0,0,0-.32-.36,2.53,2.53,0,0,0-.6-.28,4.93,4.93,0,0,0-.78-.18A6.43,6.43,0,0,0,89.48,83h0l0,0c-1.29.89-3.55,1.26-5.48,1.39a30.25,30.25,0,0,1-3.52,0L73.9,84l-.06,0s0,0-.09,0l-.27.07c-.22,0-.49.09-.76.13-.54.08-1.06.13-1.06.13h-.1l0,.1a1.23,1.23,0,0,1-.72.72l-.57.2a4.36,4.36,0,0,0-1.53-.74,10.73,10.73,0,0,0-1.1-.28h0l-.06,0h-.11l-.32,0-1.07,0c-.87,0-2,.09-3.13.15-2.25.13-4.47.29-4.47.29A13.23,13.23,0,0,1,53,84.07a4.75,4.75,0,0,1-1.52-.86,1.18,1.18,0,0,0-.88-.57Zm0,.34a.87.87,0,0,1,.63.44h0a5.13,5.13,0,0,0,1.63,1,13.44,13.44,0,0,0,5.53.76h0s2.22-.16,4.47-.29c1.13-.06,2.26-.12,3.12-.15l1.06,0,.29,0h.12s.52.1,1.1.28a4.34,4.34,0,0,1,1.51.71l.07.07.72-.23a2.58,2.58,0,0,0,.74-.71,1.43,1.43,0,0,1-.79.75l-.62.42a7.39,7.39,0,0,0-2.7-1c-.2-.21-9.1.41-9.1.41-5.18.21-7-1.65-7-1.65-1-1.45-2.07.62-2.07.62-1,1.45-4.14.62-4.14.62a3.24,3.24,0,0,0-1.9,1.25.89.89,0,0,1,.09-.24,3,3,0,0,1,1.84-1.25,7.78,7.78,0,0,0,1.65.23,3,3,0,0,0,2.6-.93h0v0a3.13,3.13,0,0,1,.61-.8.8.8,0,0,1,.54-.24Zm38.9.31a6.41,6.41,0,0,1,1.56.19h0a4.27,4.27,0,0,1,.72.18,2.27,2.27,0,0,1,.52.23l.06,0a4,4,0,0,0-1.28-.42,6.53,6.53,0,0,0-1.65-.21c-2.7,1.87-9.11,1.45-9.11,1.45L74,84.36a10.26,10.26,0,0,1-2.25.41l0,0s.5,0,1-.13a7.66,7.66,0,0,0,.79-.13l.3-.08.12-.06,6.39.4a29.72,29.72,0,0,0,3.57,0,12.14,12.14,0,0,0,5.59-1.42Zm3.25,1H96.5s.3.12.65.3a3.84,3.84,0,0,0-.63-.26H92.8a.08.08,0,0,1,0,0Zm4.44.33.25.14s0,0,.07,0l-.32-.19Zm1.47,6.72a.72.72,0,0,0,.49.4h2.89a5.41,5.41,0,0,1,1.05.67,2.5,2.5,0,0,1,.82,1,4.43,4.43,0,0,0-1.47-1.29,3.21,3.21,0,0,0-.36-.18H99.22c-.26,0-.42-.3-.53-.65ZM43,92c-.52,1-2,.64-2,.64-3.11-.62-4.14,1.45-4.14,1.45a.75.75,0,0,0-.07.12,1.48,1.48,0,0,1,.21-.44l0,0a2.53,2.53,0,0,1,.84-.89A3.94,3.94,0,0,1,41,92.39a3.38,3.38,0,0,0,1,0,1.63,1.63,0,0,0,.78-.25A1.8,1.8,0,0,0,43,92Zm55.4,20.49a1.82,1.82,0,0,0,1.84.6,7.3,7.3,0,0,1,1.62.11,2.87,2.87,0,0,1,2.15,1.24s0,.11,0,.15c-1-1.44-3.81-1.25-3.81-1.25-1.35.13-1.72-.44-1.83-.85Zm-55.69,1,0,.07a.31.31,0,0,1-.14.26.88.88,0,0,1-.35.16,9.38,9.38,0,0,1-2.62,0,3.19,3.19,0,0,0-2.53,1.71,3.06,3.06,0,0,1,2.55-2,14.19,14.19,0,0,0,1.54.1,4.66,4.66,0,0,0,1.1-.11,1.08,1.08,0,0,0,.42-.19l0,0ZM57.15,25.18l-.06.06c-3.23,2.62-7.93,1.41-7.93,1.41h0a54.56,54.56,0,0,0-6,.2H43l0,.05a1.38,1.38,0,0,1-1.56.42,3.13,3.13,0,0,1-.89-.44.82.82,0,0,0-.4-.27,3.53,3.53,0,0,0-.6-.13,7,7,0,0,0-.77,0h0a35.69,35.69,0,0,1-9.06-.28,9.53,9.53,0,0,1-1.75-.5,2.32,2.32,0,0,1-.47-.23l0,0a.4.4,0,0,0-.2-.11L27,25.28c-.2,0-.43,0-.65-.06l-.87,0h-.1l-.05.09a12.81,12.81,0,0,1-.78,1.17.69.69,0,0,1-.18,0l-.44,0c-.35,0-.77,0-1.18,0-.83,0-1.6-.08-1.6-.08h0A2.28,2.28,0,0,0,19.5,27a1.29,1.29,0,0,0-.35.6h0l-.2,4h0a3.75,3.75,0,0,1-.11,1.86c0,.07,0,0,0,0l-.14-.09-.1.14a1.05,1.05,0,0,1-.55.26,7.59,7.59,0,0,1-1,.11c-.71,0-1.38,0-1.38,0h0a1.86,1.86,0,0,0-1.28.7,3.34,3.34,0,0,0-.58,1.27,6.45,6.45,0,0,0-.15,1.73v0a1.81,1.81,0,0,0,.83,1.21,3.2,3.2,0,0,0,1.33.43,6.27,6.27,0,0,0,1.71,0h0c1.1.1,1.5.44,1.65.71a.73.73,0,0,1,.06.52v0c0,.43.06,3.83.11,7.14s.1,6.48.1,6.5A1.68,1.68,0,0,1,19,55a.76.76,0,0,1-.46.28,1.27,1.27,0,0,1-.65-.06l0,0h0c-2.32,0-3.38.81-3.83,1.64a2.71,2.71,0,0,0-.27,1.66,2.63,2.63,0,0,0,2,2.47,4.7,4.7,0,0,0,1.75.16h0c1.11,0,1.56.29,1.75.55a.64.64,0,0,1,.15.49v.06l0,0s0,.1,0,.26a5.77,5.77,0,0,1,0,.61c0,.48,0,1.09-.08,1.68-.08,1.19-.18,2.33-.18,2.33v0A2.06,2.06,0,0,0,20.68,69a2.39,2.39,0,0,0,1.12,0h0l16.53.41c2.36,1.72,3.88,1.77,4.79,1.3a2.23,2.23,0,0,0,1.13-1.35l.29,0c.19,0,.55,0,1.08.06l2,0c1.58,0,3.57,0,5.54,0l5.39,0,2.57,0h0a2.79,2.79,0,0,0,1.62,0,1.81,1.81,0,0,0,.88-.74A2.65,2.65,0,0,0,64,67.4h0l.21-4.93a1.2,1.2,0,0,1,.8-.71,3.12,3.12,0,0,1,.69-.19c2.3.3,3.43-.51,3.92-1.41A3.43,3.43,0,0,0,70,58.27h0a2.79,2.79,0,0,0-1.84-2.57,4.18,4.18,0,0,0-1.65-.27h0a2,2,0,0,1-1.85-.75,1.51,1.51,0,0,1-.26-.73h0c.06-.36.1-1.25.13-2.46s0-2.74.06-4.21c0-2.95,0-5.75,0-5.75a3,3,0,0,1,.3-1,5.42,5.42,0,0,1,.26-.5,7,7,0,0,0,2.93-.19,2.57,2.57,0,0,0,1.41-1.11,2.67,2.67,0,0,0,.27-1.78,2.62,2.62,0,0,0-.3-1.77,1.94,1.94,0,0,0-1.11-.78,3.8,3.8,0,0,0-1.65-.08c-1.42,0-1.9-.4-2.07-.74a.92.92,0,0,1-.05-.69v0a11.63,11.63,0,0,0,0-4.22,3.69,3.69,0,0,0-.46-1.28l0,0,0,0a2.05,2.05,0,0,0-.88-.23A11.75,11.75,0,0,0,62,27c-.8,0-1.53,0-1.53,0h0l0,0a.47.47,0,0,1-.53,0,3.06,3.06,0,0,1-.7-.56,7.72,7.72,0,0,1-.8-1l0-.06Zm58.58,0-.06.06c-3.23,2.62-7.93,1.41-7.93,1.41h0a52,52,0,0,0-5.82.2h-.06l0,.05a1.38,1.38,0,0,1-1.56.42,3.12,3.12,0,0,1-.89-.43.77.77,0,0,0-.4-.28,4,4,0,0,0-.6-.13,7,7,0,0,0-.77,0h0a35.78,35.78,0,0,1-9.07-.28,9.61,9.61,0,0,1-1.74-.5,2.32,2.32,0,0,1-.47-.23l0,0a.43.43,0,0,0-.21-.11l-.26-.06c-.19,0-.42,0-.65-.06l-.86,0h-.1l0,.09a11.21,11.21,0,0,1-.79,1.17.59.59,0,0,1-.18,0l-.44,0c-.34,0-.76,0-1.18,0-.82,0-1.6-.08-1.6-.08h0a2.64,2.64,0,0,0-1.84.56,1.36,1.36,0,0,0-.4.61V31.8a3,3,0,0,1-.1,1.67c0,.05,0,0,0,0h0l-.14-.09-.09.14a1.1,1.1,0,0,1-.56.26,7.41,7.41,0,0,1-1,.11c-.71,0-1.37,0-1.37,0h0a2.13,2.13,0,0,0-1.4.69,3.25,3.25,0,0,0-.64,1.27,6.13,6.13,0,0,0-.19,1.74h0A1.81,1.81,0,0,0,73,38.82a3.16,3.16,0,0,0,1.33.43,6.77,6.77,0,0,0,1.71,0h0c1.1.1,1.5.44,1.64.71a.71.71,0,0,1,.07.52h0a5.32,5.32,0,0,0-.07.85c0,.44,0,1,0,1.67,0,1.32,0,3,0,4.66,0,3.3.08,6.47.08,6.5a1.6,1.6,0,0,1-.31.89.74.74,0,0,1-.46.28,1.22,1.22,0,0,1-.64-.06l0,0h0c-2.32,0-3.38.81-3.83,1.64a2.71,2.71,0,0,0-.27,1.66,2.62,2.62,0,0,0,2,2.46,4.59,4.59,0,0,0,1.75.17h0a2,2,0,0,1,1.68.56.81.81,0,0,1,.22.51v0l0,0a1.57,1.57,0,0,1,0,.26c0,.16,0,.37,0,.61,0,.48,0,1.09-.08,1.68-.08,1.19-.18,2.32-.18,2.32v0A2,2,0,0,0,79.05,69a2.39,2.39,0,0,0,1.12,0h0l16.53.41c2.36,1.72,3.88,1.77,4.79,1.3a2.53,2.53,0,0,0,1.19-1.39h0a.42.42,0,0,1,.31-.21s0,0,0,0,0,0,0,.07l-.1.2.23,0a9.11,9.11,0,0,0,1.07.06c.53,0,1.22,0,2,0,1.58,0,3.57,0,5.54,0l5.38,0,2.59,0a3,3,0,0,0,1.7,0,1.73,1.73,0,0,0,.88-.74,2.37,2.37,0,0,0,.27-1.27v0l.2-5a1.26,1.26,0,0,1,.8-.7,2.71,2.71,0,0,1,.7-.19c2.3.31,3.42-.51,3.92-1.41a3.54,3.54,0,0,0,.38-1.88h0a2.81,2.81,0,0,0-1.84-2.57,4.22,4.22,0,0,0-1.66-.27h0c-1.2,0-1.7-.39-1.92-.75A1.21,1.21,0,0,1,123,54v0c0-1.22.21-12.41.21-12.41h0a2.75,2.75,0,0,1,.3-1,5.42,5.42,0,0,1,.26-.5,7,7,0,0,0,2.93-.19,2.57,2.57,0,0,0,1.41-1.11,2.68,2.68,0,0,0,.27-1.78,2.6,2.6,0,0,0-.3-1.77,2,2,0,0,0-1.11-.78,4.07,4.07,0,0,0-1.65-.09c-1.42,0-1.9-.39-2.07-.73a1,1,0,0,1,0-.69v0a11.69,11.69,0,0,0,0-4.23,3.68,3.68,0,0,0-.46-1.27l0,0,0,0a2.05,2.05,0,0,0-.88-.23,11.67,11.67,0,0,0-1.2,0c-.81,0-1.55,0-1.55,0h0l0,0a.47.47,0,0,1-.53,0,3.06,3.06,0,0,1-.7-.56,7.72,7.72,0,0,1-.8-1l0-.06Z" transform="translate(-10 -9.63)"/><path d="M71.68,155.36l-.41-.21C70.86,155,14.35,130.52,10,56.21V9.63H132.54V56c0,18.22-5.8,64.58-60.44,98.95ZM11.45,11.08V56c4.14,70.38,55.47,95.63,60.23,97.7C125.3,119.55,131.09,74,131.09,56V11.08Z" transform="translate(-10 -9.63)"/><path class="cls-2" d="M28.22,27s-1.25,0-1,.83l-.41,31.46s0,1.45,2.27,1.66a19.36,19.36,0,0,0,3.52,0h6.63s1.24,1.24,1.24-.21c0,0,.82-25.46.41-30.84,0,0,0-2.28-1.86-2.28,0,0-7.45.62-8.07,0Zm28.73,0a3,3,0,0,0-1.41.36s.21.83-9.11.42c-.2,0-3.72,0-3.93,1.45,0,0-.21,14.9-.21,15.31L42.08,57l-.2,4.35s.62.83,1,.21a14.42,14.42,0,0,1,5.18-.42s6.21.62,7.66-.41c0,0,1,.41,1.24-1,0,0,.41-27.53.2-27.94a27.39,27.39,0,0,0,.21-4.35s0-.32-.45-.36Zm-34.13.77a3.24,3.24,0,0,0-1.85,1L20.76,33s0,2.28-2.07,2.07a6.46,6.46,0,0,0-3.52,1s-.62,2.07,1.66,1.86c0,0,3.52,0,3.73,1.45l-.21,14.9a1.78,1.78,0,0,1-1.86,2.49s-3.32-.21-3.32,1.86c0,0,.63,1.66,3.52,1.24,0,0,2.07.42,1.87,2.28v3.72s-.21,1.45,1.86,1.66H37.74a.81.81,0,0,0,.82-.83s0-.83-1.24-.83L24.7,65.53s-2.08.62-2.28-2.48c0,0,.2-26.58.2-27.75h0V35.2s0-.3,0-.31h0c0-1,0-4.62,1-6.4a.84.84,0,0,0-.84-.63Zm39.2.08c-.89.07-.89,1.17-.89,1.17A4.8,4.8,0,0,1,61.75,31c.2,3.32,0,7,0,10.56-.21,11.8-.62,22.56-.62,22.56,0,2.28-1.24,1.66-1.24,1.66H46.22c-1.45,0-1.44.82-1.44.82a1,1,0,0,0,1.44.83c1.24.21,14.91,0,14.91,0C63.2,67.6,63,64.91,63,64.91c.21-4.76.62-5.18.62-5.18a14.18,14.18,0,0,1,2.69-.2c3.73.2,2.07-2.28,2.07-2.28-.41-.62-2.9-.62-2.9-.62-2.27.2-2.07-2.28-2.07-2.28l.21-14.28a1.57,1.57,0,0,1,.62-1.86h2.28c3.1.21,2.28-1.87,2.28-1.87,0-1-2.69-1.45-2.69-1.45-2.49.42-2.28-1-2.28-1V30.34c.41-2.28-1-2.27-1-2.27a1.68,1.68,0,0,0-.76-.14Zm-2.93.46c-.26,0-.55.24-.86.71V60.15s.83,2.69,2.07,2.48A5.62,5.62,0,0,0,60.51,61l.41-29.6s-.68-3.15-1.82-3Zm-33.36.29c-1.86,0-2.07,3.52-2.07,3.52l-.21,29.4c.21,1.45.63,1.24.63,1.24a3.75,3.75,0,0,0,1.65-3.31s.21-27.95.21-28.36-.21-2.49-.21-2.49Zm.86,33.11a1.18,1.18,0,0,0-.29.05A2.33,2.33,0,0,0,25,63.17v0a1.48,1.48,0,0,0,0,.76.73.73,0,0,0,.39.49,1.24,1.24,0,0,0,.86,0h10.1l2.72.62h0a4.53,4.53,0,0,0,.44-.14,2.16,2.16,0,0,0,.74-.43.77.77,0,0,0,.23-.4.78.78,0,0,0-.06-.51,2.91,2.91,0,0,0-1.29-1.13l0,0H29.27l-1-.22a9.37,9.37,0,0,1-1.26-.38h0a1.23,1.23,0,0,0-.45-.06Zm30.76.55a8.86,8.86,0,0,0-1.4.09c-1.65,1-11.38.2-11.38.2-.62,0-1.45,1-1.45,1-.21,1.86,2.9,1,2.69,1H57.4c1.86.42,1.86-.41,1.86-.41,0-.62-1.44-1.86-1.44-1.86a1.19,1.19,0,0,0-.47-.09ZM42,64.66a.42.42,0,0,0-.15,0S40,64.7,40,67.19a2.09,2.09,0,0,0,2.07,1.86,2.31,2.31,0,0,0,1.66-2.28s-.91-2.18-1.71-2.11ZM86.59,27s-1.25,0-1,.83l-.41,31.46s0,1.45,2.27,1.66a19.48,19.48,0,0,0,3.53,0h6.62s1.24,1.24,1.24-.42c0,0,.83-25.46.42-30.84,0,0,0-2.28-1.87-2.28,0,0-7.45.62-8.07,0Zm28.65.25a2.93,2.93,0,0,0-1.12.37s.2.83-9.11.41c-.21,0-3.93-.2-3.93,1.45,0,0-.21,14.91-.21,15.32l-.21,12.42-.41,4.35s.62.82,1,.2a14.44,14.44,0,0,1,5.17-.41s6.21.62,7.66-.41c0,0,1,.41,1.24-1,0,0,.41-27.53.21-27.94a28.7,28.7,0,0,0,.21-4.35s0-.39-.54-.37ZM81,27.85a3.22,3.22,0,0,0-1.85,1v3.93s0,2.28-2.07,2.07a6.46,6.46,0,0,0-3.52,1S72.92,38,75.2,37.79c0,0,3.52,0,3.73,1.45l-.21,14.91s.83,2.48-2.07,2.48c0,0-3.31-.21-3.31,1.86,0,0,.62,1.66,3.52,1.24,0,0,2.07.42,2.07,2.28v3.73s-.21,1.45,1.66,1.65H95.9a.81.81,0,0,0,.83-.82s0-.83-1.24-.83l-12.42-.21s-2.07.62-2.28-2.48c0,0,.21-27.74,0-28.16v.42s-.2-4.76,1-6.83a.86.86,0,0,0-.84-.63Zm39.4.08c-.89.07-.89,1.17-.89,1.17a17.87,17.87,0,0,1,.62,1.86c.21,3.32,0,7,0,10.56-.2,11.8-.62,22.56-.62,22.56,0,2.28-1.24,1.66-1.24,1.66H104.6c-1.45,0-1.45.82-1.45.82a1,1,0,0,0,1.65.63c1.25.2,14.91,0,14.91,0,2.07.2,1.86-2.49,1.86-2.49.21-4.76.62-5.17.62-5.17a13.57,13.57,0,0,1,2.69-.21c3.52.21,1.86-2.28,1.86-2.28-.41-.62-2.89-.62-2.89-.62-2.28.21-2.07-2.27-2.07-2.27L122,39.86A1.56,1.56,0,0,1,122.6,38h2.28c3.11.21,2.28-1.86,2.28-1.86,0-1-2.69-1.45-2.69-1.45-2.49.41-2.28-1-2.28-1V30.34c.42-2.28-1-2.27-1-2.27a1.72,1.72,0,0,0-.77-.14Zm-2.92.54a1.26,1.26,0,0,0-.87.63V60.15s.83,2.69,2.07,2.48a5.62,5.62,0,0,0,.21-1.65l.41-29.6s-.68-3-1.82-2.92Zm-33.37.21C82.24,28.68,82,32.2,82,32.2l-.2,29.4c.2,1.45.62,1.24.62,1.24a3.75,3.75,0,0,0,1.65-3.31s.21-27.95.21-28.36-.21-2.49-.21-2.49Zm1.19,33.08c-.36,0-1,.15-1.6,1.29,0,0-.41,1.45,1,1H94.87l2.69.62s2.9-.62,0-2.27H87.83a20.17,20.17,0,0,1-2.28-.63.76.76,0,0,0-.26,0Zm30.54.37a10.62,10.62,0,0,0-1.09.09c-1.65,1-11.38.21-11.38.21-.62,0-1.46,1-1.46,1-.41,1.86,2.7,1,2.7,1h11.59c1.86.41,1.86-.42,1.86-.42,0-.62-1.45-1.86-1.45-1.86a1.81,1.81,0,0,0-.77-.09Zm-15.21,2.32a.3.3,0,0,0-.16,0s-1.87,0-1.66,2.48a2.09,2.09,0,0,0,2.07,1.86,2.06,2.06,0,0,0,1.66-2.27s-1.1-2.19-1.91-2.12Zm-30.8,40.2s0,2.28-.2,4.56c-.21,1.24.41,7,0,9.93,0,0,0,1-2.07.21,0,0-12.63.21-12.84-.21,0,0-3.52.21-3.72-1.65,0,0,.41-13.46.2-13.87,0,0-.2-7.25,0-8.08,0,0,.21-6.83,0-7.65a11.55,11.55,0,0,0-.2-2.28s0-1,1.65-.41c0,0,.62,1,3.73.62a14.56,14.56,0,0,0,4.55,0s5-.42,6.21,0a2.09,2.09,0,0,1,2.49,1.86v6l.62,2.07.62-.41.2-1.45V87.47A2.43,2.43,0,0,1,73.13,86,13.9,13.9,0,0,1,76,86a38.65,38.65,0,0,0,7.25.21c1.45-.21,1.65,1,6.21-1.24,0,0,1.24,0,1.24.83,0,0-.42,8.28,0,9.93,0,0,0,15.32-.42,16.35l.21,5s.21,2.07-3.31,2.28c0,0,2.07.21-11.38-.21a9.22,9.22,0,0,0-4.56,1s-.41-.21-.41-1.45a58.11,58.11,0,0,0,0-9.11l-.21-5Zm21.74,13.46a13.05,13.05,0,0,0,1.65,2.48s1,1.24.83-1l.21-28.36a8,8,0,0,1,0-2.49L93,86.64s-1.25-1-1.25.63v30Zm-41.2,1.24a5.65,5.65,0,0,0,3.73,1.45l13.25.21s1.45.2,1.45.82c0,0-.21,1.25-2.07.83l-16.15-.21-1.86.21s-1.24-.21.62-2.48Zm-2.89-32.5s-1.25,2.07-1,2.69v32.71s-.21,2.27,1.66,1.65c0,0,17.18-.41,18.42,0,0,0,1.66.21,1,1,0,0,0,.62-1,.41a114.61,114.61,0,0,1-15.52.42s-5,.2-5.18-.21c0,0-.83-.21-.83-2.9a18.41,18.41,0,0,0-.2-3.1s.2-1.45-2.28-1.66c0,0-3.52.62-3.52-1.45,0,0,.41-1.45,3.93-1.24,0,0,2.49.41,1.87-1.66L45,99.06s.42-2.48-1.45-2.69H41.46s-2.89,0-2.69-1.65c0,0,1-1.66,3.94-1.45,0,0,2.07.41,2.27-2.07,0,0,0-5,1-5.18-.21,0,2.27.21,1.45.83m1.65-.21s.62,0,.62,1.25l-.2,29.6a4.13,4.13,0,0,1-1.45,3.31s-.83,1-.83-.62L47.67,90s0-2.28,1.45-3.32m23.19,34.78s1.65-1.24,2.48-1c0,0,8.9.63,11.59.21s1-.21,1-.21,2.27,0,3.1-.82a.92.92,0,0,1,1,.41L93,121.63s0,1-1.66.82c0,0-15.94,0-16.56.21.21,0-2.69.42-2.48-1.24m1,2.69a3.82,3.82,0,0,1,2.07-.41c.83.2,12.21-.21,12.21-.21s5,.41,5.8-.41l1.24-.42a2.83,2.83,0,0,0,.42-1.45v-3.52l.2-1V89.54a4,4,0,0,0-.83-3.31s0-.83.42-.62.21,0,.21,0,1.65-.41,2.07.21c0,0,.82,2.27,0,3.72,0,0-.21,2.9,1.24,2.9a1.53,1.53,0,0,0,1.65.21s2.49.2,2.49,1c0,0,0,1.87-1.66,1.45l-2.28.21a1.9,1.9,0,0,0-1.44,2.07c.2,1.86,0,15.32,0,15.32s0,1.65,2.48,1.45c0,0,3.1-.21,3.1.82,0,0,.83,1.87-1.44,2.07,0,0-4.14-.2-3.73,1a29.72,29.72,0,0,1-.41,3.31s.41,2.28,0,2.69c0,0-.21,1.24-2.9,1,0,0-16.77,0-19.46.2-.21.42-1.86.21-1.45-1.24m-2.9-1.86a1.89,1.89,0,0,1,1.66,1.86c0,1.66,0,2.48-.83,2.69A1.77,1.77,0,0,1,69,125.35a2.3,2.3,0,0,1,1.45-3.1" transform="translate(-10 -9.63)"/><path d="M39.6,38.41l-.83,1.86s-2.07,9.52-3.31,11.39c0,0-.21,2.07-1.86.41,0,0-3.94-12-4.14-12.42l-1.24-.83s-.83-1,.62-1.24h3.72s1.24,1-.41,2.07a50.61,50.61,0,0,0,2.28,7.66s.62,2.28,1.24.62l2.07-7-.62-2.07s-.62-1,.2-1c0,0,2.07-.21,2.28.62m5.59,1.66V50.42l-.21.82s-1,1.25-.21,1.45c0,0-.82.62,6.21.62,0,0,2.7.42,2.07-3.1,0,0-.2-1.24-1.24.62,0,0-.2,1.66-3.93,1a2.14,2.14,0,0,1-.83-1.45V46.07s0-1,1.66-1c0,0,1.86,1.25,2.07.63,0,0,.62-1.66,0-2.49,0,0-.83,0-1,.21,0,0-.62,1.24-2.27.41a3.75,3.75,0,0,1-.21-2.9s-.21-2.48,1.45-2.27c0,0,2.07.41,2.07,1,0,0,.41,1.24,1-.2L51.4,38a.65.65,0,0,0-.83-.42s-3.31.42-3.73,0l-2.69.21A1.09,1.09,0,0,0,45,39.24c0,.21.21.41.21.83m59.41-1.66c-.21-.83,1.65-.83,1.65-.83l1,.21a7.28,7.28,0,0,1,1.45.21,1.18,1.18,0,0,1-.42,1.65l-.41,1.24V51.24a14.09,14.09,0,0,0,1,1.45c0,.83-1,.62-1,.62H105c-.83,0-.62-1-.62-1,1-.41,1.24-2.28,1.24-2.28V40.27ZM91.35,47.52l-.21,3.1L92,52.07c.62.83-.41,1.45-.41,1.45l-3.11-.41c-.62-.21,0-1.24,0-1.24.83-.42.83-1.66.83-1.66V40.27c0-.41-.83-1.45-.83-1.45-.62,0-.41-1-.41-1,.2-.41,1.86-.21,1.86-.21H94c3.93,1.24,3.31,4.14,3.31,4.14.21,2.9-2.69,3.94-2.69,3.94l-.21,1.65,2.9,4.55a1.29,1.29,0,0,1,.42.83c-.42,1-2.07,0-2.07,0L92.18,47.1c-.42-.41-.83.42-.83.42m0-7.87v5.18a1.81,1.81,0,0,0,2.9-.62c2.48-2.28,0-4.56-.42-5.18s-2.27,0-2.27,0Zm-30.22,58s.21,7.25,0,8.28v1.66a3.73,3.73,0,0,0,1,1.45s.42,1.44-.62,1.24a15,15,0,0,0-3.1,0s-1.45,0,0-1.66a5,5,0,0,0,.41-2.48s0-8.28.21-8.7c0,0,.21-1-.42-1.44H57.4L56,97.4s-.41,1.45-1,0v-.82l.83-2.28h.62a5.62,5.62,0,0,0,1.65.83h4.56l1.65-.83s.62,0,.42,1c0,0,.2,2.28-1,2.49a2,2,0,0,1-1.24-1.45c0-.21-1.24-1-1.24,1.24m21.53-2.69s-3.73-.41-3.73,3.73c0,0-.41,2.69,3.73,4.55,0,0,3.1,1.45,2.89,3.31,0,0-.41,3.31-3.72,1.66,0,0-1.66-.83-1.45-1.66,0,0-.42-1-1-.83,0,0-.62.21-.41,3.52,0,0,0,1.24,1.45,0l.83.21a3.66,3.66,0,0,0,5-.41s2.49-2.28.62-5a7.57,7.57,0,0,0-3.51-2.9,6.07,6.07,0,0,1-2.69-2.69A2.11,2.11,0,0,1,83.9,97a6.17,6.17,0,0,0,1.65,1.45s.83,0,.62-1.86L86,95.13s-.21-1-1.66,0c0-.21-1.24.41-1.66-.21M70.86,92.85a2.57,2.57,0,0,1,.82,1.45,98.85,98.85,0,0,1,3.73,12.83,3.85,3.85,0,0,0,1.45,1.66c1.65.62,0,1,0,1a13,13,0,0,1-2.9,0c-1.24-.2-.62-.62-.62-.62.41-.41,0-2.48,0-2.48a4.6,4.6,0,0,0-1-2.07c-.41-.21-1,.62-1,.62s-1,.41-1.24,0a3,3,0,0,0-.83-.83c-1.24,0-1.66,2.9-1.66,2.9.62,2.48,0,2.07,0,2.07-.62.83-2.48.21-2.48.21-.83-.21-.21-.83-.21-.83,1-.21,1.45-1.45,1.45-1.45.42-.62,3.73-13.45,3.73-13.45-.21-.21,0-1.45.83-1M69.2,99.47c0,.42-.83,3.32-.83,3.32l.62,1h2.07c.42,0,.62-.41.62-1,0-.42-1-3.52-1-3.52l-.42-.62Z" transform="translate(-10 -9.63)"/></svg>